{"scene":0,"asset":{"generator":"ImageToStl.com","version":"2.0"},"scenes":[{"name":"Scene","nodes":[0]}],"nodes":[{"name":"Node0","children":[1,2,3,4,5,6,7,8,9,10,11,12,13,14,15,16,17,18,19,20,21,22,23,24]},{"name":"Node1","mesh":0},{"name":"Node2","mesh":1},{"name":"Node3","mesh":2},{"name":"Node4","mesh":3},{"name":"Node5","mesh":4},{"name":"Node6","mesh":5},{"name":"Node7","mesh":6},{"name":"Node8","mesh":7},{"name":"Node9","mesh":8},{"name":"Node10","mesh":9},{"name":"Node11","mesh":10},{"name":"Node12","mesh":11},{"name":"Node13","mesh":12},{"name":"Node14","mesh":13},{"name":"Node15","mesh":14},{"name":"Node16","mesh":15},{"name":"Node17","mesh":16},{"name":"Node18","mesh":17},{"name":"Node19","mesh":18},{"name":"Node20","mesh":19},{"name":"Node21","mesh":20},{"name":"Node22","mesh":21},{"name":"Node23","mesh":22},{"name":"Node24","mesh":23}],"materials":[{"name":"#0A2E41FF","pbrMetallicRoughness":{"baseColorFactor":[0.039215688,0.18039216,0.25490198,1.0],"metallicFactor":0.0,"roughnessFactor":1.0},"doubleSided":true},{"name":"#2F57A4FF","pbrMetallicRoughness":{"baseColorFactor":[0.18431373,0.34117648,0.6431373,1.0],"metallicFactor":0.0,"roughnessFactor":1.0},"doubleSided":true},{"name":"#00000001","pbrMetallicRoughness":{"baseColorFactor":[0.0,0.0,0.0,0.003921569],"metallicFactor":0.0,"roughnessFactor":1.0},"alphaMode":"BLEND","doubleSided":true},{"name":"#2D5AA522","pbrMetallicRoughness":{"baseColorFactor":[0.1764706,0.3529412,0.64705884,0.13333334],"metallicFactor":0.0,"roughnessFactor":1.0},"alphaMode":"BLEND","doubleSided":true},{"name":"#2F57A361","pbrMetallicRoughness":{"baseColorFactor":[0.18431373,0.34117648,0.6392157,0.38039216],"metallicFactor":0.0,"roughnessFactor":1.0},"alphaMode":"BLEND","doubleSided":true},{"name":"#2E58A4C6","pbrMetallicRoughness":{"baseColorFactor":[0.18039216,0.34509805,0.6431373,0.7764706],"metallicFactor":0.0,"roughnessFactor":1.0},"alphaMode":"BLEND","doubleSided":true},{"name":"#2E57A495","pbrMetallicRoughness":{"baseColorFactor":[0.18039216,0.34117648,0.6431373,0.58431375],"metallicFactor":0.0,"roughnessFactor":1.0},"alphaMode":"BLEND","doubleSided":true},{"name":"#3057A5DC","pbrMetallicRoughness":{"baseColorFactor":[0.1882353,0.34117648,0.64705884,0.8627451],"metallicFactor":0.0,"roughnessFactor":1.0},"alphaMode":"BLEND","doubleSided":true},{"name":"#3955AA09","pbrMetallicRoughness":{"baseColorFactor":[0.22352941,0.33333334,0.6666667,0.03529412],"metallicFactor":0.0,"roughnessFactor":1.0},"alphaMode":"BLEND","doubleSided":true},{"name":"#3055A345","pbrMetallicRoughness":{"baseColorFactor":[0.1882353,0.33333334,0.6392157,0.27058825],"metallicFactor":0.0,"roughnessFactor":1.0},"alphaMode":"BLEND","doubleSided":true},{"name":"#00404004","pbrMetallicRoughness":{"baseColorFactor":[0.0,0.2509804,0.2509804,0.015686275],"metallicFactor":0.0,"roughnessFactor":1.0},"alphaMode":"BLEND","doubleSided":true},{"name":"#0000FF01","pbrMetallicRoughness":{"baseColorFactor":[0.0,0.0,1.0,0.003921569],"metallicFactor":0.0,"roughnessFactor":1.0},"alphaMode":"BLEND","doubleSided":true},{"name":"#3059A279","pbrMetallicRoughness":{"baseColorFactor":[0.1882353,0.34901962,0.63529414,0.4745098],"metallicFactor":0.0,"roughnessFactor":1.0},"alphaMode":"BLEND","doubleSided":true},{"name":"#2F58A4AE","pbrMetallicRoughness":{"baseColorFactor":[0.18431373,0.34509805,0.6431373,0.68235296],"metallicFactor":0.0,"roughnessFactor":1.0},"alphaMode":"BLEND","doubleSided":true},{"name":"#002A5506","pbrMetallicRoughness":{"baseColorFactor":[0.0,0.16470589,0.33333334,0.023529412],"metallicFactor":0.0,"roughnessFactor":1.0},"alphaMode":"BLEND","doubleSided":true},{"name":"#00007F02","pbrMetallicRoughness":{"baseColorFactor":[0.0,0.0,0.49803922,0.007843138],"metallicFactor":0.0,"roughnessFactor":1.0},"alphaMode":"BLEND","doubleSided":true},{"name":"#4040BF04","pbrMetallicRoughness":{"baseColorFactor":[0.2509804,0.2509804,0.7490196,0.015686275],"metallicFactor":0.0,"roughnessFactor":1.0},"alphaMode":"BLEND","doubleSided":true},{"name":"#007F7F02","pbrMetallicRoughness":{"baseColorFactor":[0.0,0.49803922,0.49803922,0.007843138],"metallicFactor":0.0,"roughnessFactor":1.0},"alphaMode":"BLEND","doubleSided":true},{"name":"#00204008","pbrMetallicRoughness":{"baseColorFactor":[0.0,0.1254902,0.2509804,0.03137255],"metallicFactor":0.0,"roughnessFactor":1.0},"alphaMode":"BLEND","doubleSided":true},{"name":"#00555503","pbrMetallicRoughness":{"baseColorFactor":[0.0,0.33333334,0.33333334,0.011764706],"metallicFactor":0.0,"roughnessFactor":1.0},"alphaMode":"BLEND","doubleSided":true},{"name":"#407FBF04","pbrMetallicRoughness":{"baseColorFactor":[0.2509804,0.49803922,0.7490196,0.015686275],"metallicFactor":0.0,"roughnessFactor":1.0},"alphaMode":"BLEND","doubleSided":true},{"name":"#5555AA03","pbrMetallicRoughness":{"baseColorFactor":[0.33333334,0.33333334,0.6666667,0.011764706],"metallicFactor":0.0,"roughnessFactor":1.0},"alphaMode":"BLEND","doubleSided":true},{"name":"#00005503","pbrMetallicRoughness":{"baseColorFactor":[0.0,0.0,0.33333334,0.011764706],"metallicFactor":0.0,"roughnessFactor":1.0},"alphaMode":"BLEND","doubleSided":true},{"name":"#002A2A06","pbrMetallicRoughness":{"baseColorFactor":[0.0,0.16470589,0.16470589,0.023529412],"metallicFactor":0.0,"roughnessFactor":1.0},"alphaMode":"BLEND","doubleSided":true},{"name":"#00FFFF01","pbrMetallicRoughness":{"baseColorFactor":[0.0,1.0,1.0,0.003921569],"metallicFactor":0.0,"roughnessFactor":1.0},"alphaMode":"BLEND","doubleSided":true},{"name":"#0055AA03","pbrMetallicRoughness":{"baseColorFactor":[0.0,0.33333334,0.6666667,0.011764706],"metallicFactor":0.0,"roughnessFactor":1.0},"alphaMode":"BLEND","doubleSided":true},{"name":"#7F7FFF02","pbrMetallicRoughness":{"baseColorFactor":[0.49803922,0.49803922,1.0,0.007843138],"metallicFactor":0.0,"roughnessFactor":1.0},"alphaMode":"BLEND","doubleSided":true},{"name":"#00004004","pbrMetallicRoughness":{"baseColorFactor":[0.0,0.0,0.2509804,0.015686275],"metallicFactor":0.0,"roughnessFactor":1.0},"alphaMode":"BLEND","doubleSided":true}],"meshes":[{"name":"Mesh0","primitives":[{"indices":2,"material":0,"attributes":{"POSITION":0,"NORMAL":1}}]},{"name":"Mesh0","primitives":[{"indices":5,"material":0,"attributes":{"POSITION":3,"NORMAL":4}}]},{"name":"Mesh0","primitives":[{"indices":8,"material":0,"attributes":{"POSITION":6,"NORMAL":7}}]},{"name":"Mesh0","primitives":[{"indices":11,"material":0,"attributes":{"POSITION":9,"NORMAL":10}}]},{"name":"Mesh0","primitives":[{"indices":14,"material":0,"attributes":{"POSITION":12,"NORMAL":13}}]},{"name":"Mesh0","primitives":[{"indices":17,"material":0,"attributes":{"POSITION":15,"NORMAL":16}}]},{"name":"Mesh0","primitives":[{"indices":20,"material":1,"attributes":{"POSITION":18,"NORMAL":19}}]},{"name":"Mesh0","primitives":[{"indices":23,"material":1,"attributes":{"POSITION":21,"NORMAL":22}}]},{"name":"Mesh0","primitives":[{"indices":26,"material":1,"attributes":{"POSITION":24,"NORMAL":25}}]},{"name":"Mesh0","primitives":[{"indices":29,"material":1,"attributes":{"POSITION":27,"NORMAL":28}}]},{"name":"Mesh0","primitives":[{"indices":32,"material":1,"attributes":{"POSITION":30,"NORMAL":31}}]},{"name":"Mesh0","primitives":[{"indices":35,"material":1,"attributes":{"POSITION":33,"NORMAL":34}}]},{"name":"Mesh0","primitives":[{"indices":38,"material":1,"attributes":{"POSITION":36,"NORMAL":37}}]},{"name":"Mesh0","primitives":[{"indices":41,"material":1,"attributes":{"POSITION":39,"NORMAL":40}}]},{"name":"Mesh0","primitives":[{"indices":44,"material":1,"attributes":{"POSITION":42,"NORMAL":43}}]},{"name":"Mesh0","primitives":[{"indices":47,"material":1,"attributes":{"POSITION":45,"NORMAL":46}}]},{"name":"Mesh0","primitives":[{"indices":50,"material":1,"attributes":{"POSITION":48,"NORMAL":49}}]},{"name":"Mesh0","primitives":[{"indices":53,"material":1,"attributes":{"POSITION":51,"NORMAL":52}}]},{"name":"Mesh0","primitives":[{"indices":56,"material":1,"attributes":{"POSITION":54,"NORMAL":55}}]},{"name":"Mesh0","primitives":[{"indices":59,"material":1,"attributes":{"POSITION":57,"NORMAL":58}}]},{"name":"Mesh0","primitives":[{"indices":62,"material":1,"attributes":{"POSITION":60,"NORMAL":61}}]},{"name":"Mesh0","primitives":[{"indices":65,"material":1,"attributes":{"POSITION":63,"NORMAL":64}}]},{"name":"Mesh0","primitives":[{"indices":68,"material":1,"attributes":{"POSITION":66,"NORMAL":67}}]},{"name":"Mesh0","primitives":[{"indices":71,"material":1,"attributes":{"POSITION":69,"NORMAL":70}}]}],"accessors":[{"bufferView":0,"componentType":5126,"count":3636,"type":"VEC3","min":[-5.3246994,-9.150792,-5.0],"max":[13.154089,9.289059,5.0]},{"bufferView":1,"componentType":5126,"count":3636,"type":"VEC3"},{"bufferView":2,"componentType":5123,"count":7272,"type":"SCALAR"},{"bufferView":3,"componentType":5126,"count":2984,"type":"VEC3","min":[-32.0,-9.166007,-5.0],"max":[-13.566722,15.777779,5.0]},{"bufferView":4,"componentType":5126,"count":2984,"type":"VEC3"},{"bufferView":5,"componentType":5123,"count":5976,"type":"SCALAR"},{"bufferView":6,"componentType":5126,"count":1308,"type":"VEC3","min":[22.88889,-15.918094,-5.0],"max":[43.658485,8.777779,5.0]},{"bufferView":7,"componentType":5126,"count":1308,"type":"VEC3"},{"bufferView":8,"componentType":5123,"count":2604,"type":"SCALAR"},{"bufferView":9,"componentType":5126,"count":1004,"type":"VEC3","min":[14.880341,-8.777779,-5.0],"max":[23.333334,15.777593,5.0]},{"bufferView":10,"componentType":5126,"count":1004,"type":"VEC3"},{"bufferView":11,"componentType":5123,"count":2004,"type":"SCALAR"},{"bufferView":12,"componentType":5126,"count":48,"type":"VEC3","min":[-11.444445,-8.777779,-5.0],"max":[-7.3333335,8.777779,5.0]},{"bufferView":13,"componentType":5126,"count":48,"type":"VEC3"},{"bufferView":14,"componentType":5123,"count":108,"type":"SCALAR"},{"bufferView":15,"componentType":5126,"count":72,"type":"VEC3","min":[-11.444445,11.666668,-5.0],"max":[-7.3333335,15.777779,5.0]},{"bufferView":16,"componentType":5126,"count":72,"type":"VEC3"},{"bufferView":17,"componentType":5123,"count":156,"type":"SCALAR"},{"bufferView":18,"componentType":5126,"count":1408,"type":"VEC3","min":[-43.61098,-9.124089,-5.0],"max":[-33.783173,0.8748239,5.0]},{"bufferView":19,"componentType":5126,"count":1408,"type":"VEC3"},{"bufferView":20,"componentType":5123,"count":2802,"type":"SCALAR"},{"bufferView":21,"componentType":5126,"count":112,"type":"VEC3","min":[-11.555555,-8.89267,-5.0],"max":[-7.22124,8.888889,5.0]},{"bufferView":22,"componentType":5126,"count":112,"type":"VEC3"},{"bufferView":23,"componentType":5123,"count":246,"type":"SCALAR"},{"bufferView":24,"componentType":5126,"count":122,"type":"VEC3","min":[-11.555555,11.555556,-5.0],"max":[-7.2222223,15.88889,5.0]},{"bufferView":25,"componentType":5126,"count":122,"type":"VEC3"},{"bufferView":26,"componentType":5123,"count":270,"type":"SCALAR"},{"bufferView":27,"componentType":5126,"count":1266,"type":"VEC3","min":[-4.917279,-15.576746,-5.0],"max":[-0.46159193,-11.081815,5.0]},{"bufferView":28,"componentType":5126,"count":1266,"type":"VEC3"},{"bufferView":29,"componentType":5123,"count":2532,"type":"SCALAR"},{"bufferView":30,"componentType":5126,"count":1260,"type":"VEC3","min":[3.7780793,-15.571793,-5.0],"max":[8.151246,-11.131772,5.0]},{"bufferView":31,"componentType":5126,"count":1260,"type":"VEC3"},{"bufferView":32,"componentType":5123,"count":2520,"type":"SCALAR"},{"bufferView":33,"componentType":5126,"count":1206,"type":"VEC3","min":[9.191978,-15.546207,-5.0],"max":[13.666667,-11.1546955,5.0]},{"bufferView":34,"componentType":5126,"count":1206,"type":"VEC3"},{"bufferView":35,"componentType":5123,"count":2400,"type":"SCALAR"},{"bufferView":36,"componentType":5126,"count":396,"type":"VEC3","min":[-9.222222,-15.555556,-5.0],"max":[-6.0,-11.222223,5.0]},{"bufferView":37,"componentType":5126,"count":396,"type":"VEC3"},{"bufferView":38,"componentType":5123,"count":804,"type":"SCALAR"},{"bufferView":39,"componentType":5126,"count":250,"type":"VEC3","min":[-13.555555,-15.566528,-5.0],"max":[-10.329525,-11.222223,5.0]},{"bufferView":40,"componentType":5126,"count":250,"type":"VEC3"},{"bufferView":41,"componentType":5123,"count":528,"type":"SCALAR"},{"bufferView":42,"componentType":5126,"count":288,"type":"VEC3","min":[-21.88889,-15.560957,-5.0],"max":[-18.990944,-11.222223,5.0]},{"bufferView":43,"componentType":5126,"count":288,"type":"VEC3"},{"bufferView":44,"componentType":5123,"count":600,"type":"SCALAR"},{"bufferView":45,"componentType":5126,"count":308,"type":"VEC3","min":[16.666666,-15.555556,-5.0],"max":[19.444445,-11.222223,5.0]},{"bufferView":46,"componentType":5126,"count":308,"type":"VEC3"},{"bufferView":47,"componentType":5123,"count":648,"type":"SCALAR"},{"bufferView":48,"componentType":5126,"count":996,"type":"VEC3","min":[20.555641,-15.552801,-5.0],"max":[23.557009,-11.1227455,5.0]},{"bufferView":49,"componentType":5126,"count":996,"type":"VEC3"},{"bufferView":50,"componentType":5123,"count":1980,"type":"SCALAR"},{"bufferView":51,"componentType":5126,"count":1108,"type":"VEC3","min":[14.768013,-8.89254,-5.0],"max":[20.9016,15.536737,5.0]},{"bufferView":52,"componentType":5126,"count":1108,"type":"VEC3"},{"bufferView":53,"componentType":5123,"count":2208,"type":"SCALAR"},{"bufferView":54,"componentType":5126,"count":960,"type":"VEC3","min":[-18.312162,-15.566297,-5.0],"max":[-14.640045,-11.137217,5.0]},{"bufferView":55,"componentType":5126,"count":960,"type":"VEC3"},{"bufferView":56,"componentType":5123,"count":1908,"type":"SCALAR"},{"bufferView":57,"componentType":5126,"count":480,"type":"VEC3","min":[-32.11111,-8.888889,-5.0],"max":[-24.899548,15.88889,5.0]},{"bufferView":58,"componentType":5126,"count":480,"type":"VEC3"},{"bufferView":59,"componentType":5123,"count":984,"type":"SCALAR"},{"bufferView":60,"componentType":5126,"count":186,"type":"VEC3","min":[-26.222221,-15.555556,-5.0],"max":[-23.0,-11.222223,5.0]},{"bufferView":61,"componentType":5126,"count":186,"type":"VEC3"},{"bufferView":62,"componentType":5123,"count":372,"type":"SCALAR"},{"bufferView":63,"componentType":5126,"count":112,"type":"VEC3","min":[0.55114174,-15.561003,-5.0],"max":[3.0,-11.222223,5.0]},{"bufferView":64,"componentType":5126,"count":112,"type":"VEC3"},{"bufferView":65,"componentType":5123,"count":228,"type":"SCALAR"},{"bufferView":66,"componentType":5126,"count":72,"type":"VEC3","min":[14.777778,-15.555556,-5.0],"max":[15.444445,-11.222223,5.0]},{"bufferView":67,"componentType":5126,"count":72,"type":"VEC3"},{"bufferView":68,"componentType":5123,"count":156,"type":"SCALAR"},{"bufferView":69,"componentType":5126,"count":648,"type":"VEC3","min":[22.777779,-4.3079386,-5.0],"max":[29.39788,8.894656,5.0]},{"bufferView":70,"componentType":5126,"count":648,"type":"VEC3"},{"bufferView":71,"componentType":5123,"count":1284,"type":"SCALAR"}],"bufferViews":[{"target":34962,"buffer":0,"byteLength":43632,"byteOffset":0},{"target":34962,"buffer":0,"byteLength":43632,"byteOffset":43632},{"target":34963,"buffer":0,"byteLength":14544,"byteOffset":87264},{"target":34962,"buffer":0,"byteLength":35808,"byteOffset":101808},{"target":34962,"buffer":0,"byteLength":35808,"byteOffset":137616},{"target":34963,"buffer":0,"byteLength":11952,"byteOffset":173424},{"target":34962,"buffer":0,"byteLength":15696,"byteOffset":185376},{"target":34962,"buffer":0,"byteLength":15696,"byteOffset":201072},{"target":34963,"buffer":0,"byteLength":5208,"byteOffset":216768},{"target":34962,"buffer":0,"byteLength":12048,"byteOffset":221976},{"target":34962,"buffer":0,"byteLength":12048,"byteOffset":234024},{"target":34963,"buffer":0,"byteLength":4008,"byteOffset":246072},{"target":34962,"buffer":0,"byteLength":576,"byteOffset":250080},{"target":34962,"buffer":0,"byteLength":576,"byteOffset":250656},{"target":34963,"buffer":0,"byteLength":216,"byteOffset":251232},{"target":34962,"buffer":0,"byteLength":864,"byteOffset":251448},{"target":34962,"buffer":0,"byteLength":864,"byteOffset":252312},{"target":34963,"buffer":0,"byteLength":312,"byteOffset":253176},{"target":34962,"buffer":0,"byteLength":16896,"byteOffset":253488},{"target":34962,"buffer":0,"byteLength":16896,"byteOffset":270384},{"target":34963,"buffer":0,"byteLength":5604,"byteOffset":287280},{"target":34962,"buffer":0,"byteLength":1344,"byteOffset":292884},{"target":34962,"buffer":0,"byteLength":1344,"byteOffset":294228},{"target":34963,"buffer":0,"byteLength":492,"byteOffset":295572},{"target":34962,"buffer":0,"byteLength":1464,"byteOffset":296064},{"target":34962,"buffer":0,"byteLength":1464,"byteOffset":297528},{"target":34963,"buffer":0,"byteLength":540,"byteOffset":298992},{"target":34962,"buffer":0,"byteLength":15192,"byteOffset":299532},{"target":34962,"buffer":0,"byteLength":15192,"byteOffset":314724},{"target":34963,"buffer":0,"byteLength":5064,"byteOffset":329916},{"target":34962,"buffer":0,"byteLength":15120,"byteOffset":334980},{"target":34962,"buffer":0,"byteLength":15120,"byteOffset":350100},{"target":34963,"buffer":0,"byteLength":5040,"byteOffset":365220},{"target":34962,"buffer":0,"byteLength":14472,"byteOffset":370260},{"target":34962,"buffer":0,"byteLength":14472,"byteOffset":384732},{"target":34963,"buffer":0,"byteLength":4800,"byteOffset":399204},{"target":34962,"buffer":0,"byteLength":4752,"byteOffset":404004},{"target":34962,"buffer":0,"byteLength":4752,"byteOffset":408756},{"target":34963,"buffer":0,"byteLength":1608,"byteOffset":413508},{"target":34962,"buffer":0,"byteLength":3000,"byteOffset":415116},{"target":34962,"buffer":0,"byteLength":3000,"byteOffset":418116},{"target":34963,"buffer":0,"byteLength":1056,"byteOffset":421116},{"target":34962,"buffer":0,"byteLength":3456,"byteOffset":422172},{"target":34962,"buffer":0,"byteLength":3456,"byteOffset":425628},{"target":34963,"buffer":0,"byteLength":1200,"byteOffset":429084},{"target":34962,"buffer":0,"byteLength":3696,"byteOffset":430284},{"target":34962,"buffer":0,"byteLength":3696,"byteOffset":433980},{"target":34963,"buffer":0,"byteLength":1296,"byteOffset":437676},{"target":34962,"buffer":0,"byteLength":11952,"byteOffset":438972},{"target":34962,"buffer":0,"byteLength":11952,"byteOffset":450924},{"target":34963,"buffer":0,"byteLength":3960,"byteOffset":462876},{"target":34962,"buffer":0,"byteLength":13296,"byteOffset":466836},{"target":34962,"buffer":0,"byteLength":13296,"byteOffset":480132},{"target":34963,"buffer":0,"byteLength":4416,"byteOffset":493428},{"target":34962,"buffer":0,"byteLength":11520,"byteOffset":497844},{"target":34962,"buffer":0,"byteLength":11520,"byteOffset":509364},{"target":34963,"buffer":0,"byteLength":3816,"byteOffset":520884},{"target":34962,"buffer":0,"byteLength":5760,"byteOffset":524700},{"target":34962,"buffer":0,"byteLength":5760,"byteOffset":530460},{"target":34963,"buffer":0,"byteLength":1968,"byteOffset":536220},{"target":34962,"buffer":0,"byteLength":2232,"byteOffset":538188},{"target":34962,"buffer":0,"byteLength":2232,"byteOffset":540420},{"target":34963,"buffer":0,"byteLength":744,"byteOffset":542652},{"target":34962,"buffer":0,"byteLength":1344,"byteOffset":543396},{"target":34962,"buffer":0,"byteLength":1344,"byteOffset":544740},{"target":34963,"buffer":0,"byteLength":456,"byteOffset":546084},{"target":34962,"buffer":0,"byteLength":864,"byteOffset":546540},{"target":34962,"buffer":0,"byteLength":864,"byteOffset":547404},{"target":34963,"buffer":0,"byteLength":312,"byteOffset":548268},{"target":34962,"buffer":0,"byteLength":7776,"byteOffset":548580},{"target":34962,"buffer":0,"byteLength":7776,"byteOffset":556356},{"target":34963,"buffer":0,"byteLength":2568,"byteOffset":564132}],"buffers":[{"byteLength":566700,"uri":"data:application/octet-stream;base64,"}]}